<?xml version="1.0" encoding="UTF-8" standalone="no"?>
<svg width="180px" height="132px" viewBox="0 0 180 132" version="1.1" xmlns="http://www.w3.org/2000/svg" xmlns:xlink="http://www.w3.org/1999/xlink" xmlns:sketch="http://www.bohemiancoding.com/sketch/ns">
    <!-- Generator: Sketch 3.4.2 (15857) - http://www.bohemiancoding.com/sketch -->
    <title>Logo</title>
    <desc>Created with Sketch.</desc>
    <defs></defs>
    <g id="Frem-Minralvand-Website" stroke="none" stroke-width="1" fill="none" fill-rule="evenodd" sketch:type="MSPage">
        <g id="1-Homepage" sketch:type="MSArtboardGroup" transform="translate(-710.000000, -46.000000)" fill="#B40F0F">
            <g id="Header-(Over-Image)" sketch:type="MSLayerGroup" transform="translate(0.000000, -3.000000)">
                <g id="Logo" transform="translate(710.000000, 44.000000)" sketch:type="MSShapeGroup">
                    <path d="M177.250496,32.6107066 C176.100144,31.3566415 174.576482,30.3426222 173.049017,29.557248 C170.830073,28.4178222 168.518594,28.5166273 166.616552,30.3248879 C163.450073,33.3340108 160.329862,36.3963365 157.265425,39.5105982 C156.00289,40.7944316 154.934932,42.2682748 153.673031,43.7820201 C153.468946,43.183489 153.307327,42.8193034 153.219862,42.4373836 C152.645003,39.9203862 150.957186,38.311636 148.849158,37.0335029 C147.260848,36.0707863 145.657327,36.0657194 144.144439,37.1050733 C142.969369,37.9126153 141.829791,38.799328 140.79796,39.7804123 C137.429298,42.9827119 134.766059,46.753141 132.247327,50.6325091 C131.816975,51.2956436 131.349228,51.9340767 130.899228,52.5832771 C130.93789,51.6085265 131.243383,50.7864171 131.375848,49.9358063 C131.794791,47.2535003 131.183806,44.8340414 129.120144,42.9884122 C126.762397,40.8824695 124.582115,40.8856363 122.469017,42.6425942 C121.558876,43.3994669 120.648101,44.2399438 120.006059,45.2184947 C117.561482,48.9369878 115.162538,52.6884159 112.864369,56.4987471 C108.921482,63.0350865 105.222608,69.7234339 101.108594,76.1483009 C99.155214,79.2011261 96.5946506,81.8979994 94.1006365,84.5600377 C92.4451435,86.3264961 90.428383,87.7579037 88.0332421,88.39127 C87.8411999,88.1227227 87.6903548,88.0055499 87.6726083,87.8706429 C87.6079604,87.3994185 87.5718337,86.9231271 87.5553548,86.4481024 C87.4051435,82.1507126 88.7266224,78.1434045 89.949228,74.109495 C90.3269745,72.8636636 91.0203548,72.2081296 92.2740168,71.7305714 C98.669721,69.2952783 103.558242,64.9788875 107.211482,59.2519901 C108.823242,56.7273923 109.764439,53.9868167 109.611693,50.9111903 C109.355003,45.7384883 104.982397,42.8085362 100.302397,44.9474139 C98.309721,45.8588279 96.3848618,47.143928 94.7895802,48.6431058 C92.424228,50.8681214 90.3504252,53.4079199 88.2088055,55.8634808 C86.0050731,58.3912454 83.3564111,59.5059699 79.6353548,58.8422021 C82.2440872,53.6175642 85.3712703,49.0693613 88.5491576,44.5597938 C87.6390168,42.9972793 86.2839463,42.4392837 84.716552,42.3043767 C80.4618337,41.938291 77.0811294,43.9821638 75.4414816,47.95337 C74.0217633,51.3900151 73.8607773,54.9165983 75.1264816,58.41658 C75.549228,59.5864075 75.4934534,60.5339233 74.9122562,61.579611 C73.8303548,63.525312 72.8105661,65.5052148 71.7654252,67.4711836 C70.9218337,69.057766 70.0795097,70.6449817 69.236552,72.2302974 C69.0033125,71.7248711 69.114228,71.3587855 69.1763407,70.9838327 C69.5401435,68.7955524 70.1099323,66.6161392 70.2037351,64.4170916 C70.4052844,59.6700118 64.9323971,55.7494749 60.4824675,58.9150393 C58.1494393,60.5738254 55.7352844,62.1198724 53.3648618,63.7273558 C52.1574675,64.545665 50.9640168,65.3855086 49.764228,66.2158517 C52.3564816,57.7971479 54.8536647,49.5120843 58.5423971,41.6672102 C59.5983125,39.421927 60.8811294,37.3210512 62.8788759,35.7484029 C63.0290872,35.62933 63.0481013,35.3436819 63.1526787,35.070701 C62.8655661,34.8699239 62.6323266,34.653946 62.3585238,34.5279062 C62.001059,34.3638643 61.6188759,34.2403579 61.2347914,34.1516866 C57.0998618,33.1934035 53.4155661,34.2435247 50.465214,37.1557426 C48.6227492,38.9747704 47.0654956,41.1541836 45.6958478,43.3665318 C43.3856365,47.1014924 41.8550027,51.2259733 40.6013407,55.4182243 C38.8970449,61.1235873 37.3226787,66.8688523 35.798383,72.6255179 C35.451059,73.9378527 34.8603548,74.7688292 33.5661294,75.0842456 C30.7926083,75.7613141 28.0463407,76.6182586 25.2347914,77.0451474 C21.9700731,77.5410732 20.3259886,75.9158554 20.3576787,72.653386 C19.2985942,71.9015803 18.2382421,72.1859618 17.261552,72.7946267 C16.049721,73.5514993 15.3658478,74.6959921 15.2061294,76.1273998 C14.8271154,79.5292098 17.1284534,82.2729522 20.6872562,82.6415714 C24.2466928,83.0101905 27.6603548,82.4534616 30.9282421,80.9878522 C31.8250731,80.5856646 32.7472562,80.2417468 34.0617633,79.7071857 C32.9462703,83.8950031 32.0259886,87.6590986 30.935214,91.3737915 C29.3000027,96.9429807 27.5171154,102.464034 24.734721,107.600001 C23.3967633,110.069496 21.7945097,112.33188 19.6630309,114.182576 C17.5353548,116.032005 15.0914111,117.043491 12.2291576,116.849681 C10.1680309,116.709707 8.81739705,115.677954 8.23239705,113.680317 C7.96810128,112.77587 7.77732663,111.807453 7.79950973,110.873237 C7.89394635,106.746857 9.39859424,103.132235 12.0200027,99.9711046 C15.7372562,95.4894052 20.5288055,92.6183561 25.9655661,90.7182575 C26.8294393,90.4161418 27.6755661,90.0627234 28.6338759,89.6928376 C27.9113407,88.0175839 26.8186647,87.3360818 25.374228,87.2372767 C24.5071858,87.1764735 23.6084534,87.1853407 22.7572562,87.3436822 C17.7489463,88.2677636 13.1437351,90.176096 9.11528438,93.3125255 C4.5975379,96.8264413 1.21936888,101.090896 0.202749166,106.952067 C-1.0268283,114.040069 3.44655198,119.692229 10.6262703,119.840436 C14.8157069,119.927208 18.6007773,118.581304 22.0492985,116.24735 C25.3190872,114.033735 27.974721,111.198788 30.3407069,108.068692 C33.7638759,103.53759 36.5931717,98.636602 38.8089463,93.4347652 C41.7035238,86.6406457 44.2919745,79.7160528 47.054721,72.8636636 C47.3963407,72.0181197 47.8247914,71.0427357 48.5124675,70.5259089 C52.2633125,67.7042624 56.0971858,64.9896547 59.9323266,62.280114 C60.6605661,61.7651873 61.4116224,61.1191537 62.7191576,61.2958629 C62.4966928,62.3396504 62.4276083,63.2896998 62.0897914,64.1327102 C60.9673266,66.934089 59.7966928,69.7196337 58.5569745,72.4690765 C56.3031717,77.4682361 53.8630309,82.3844247 52.3495097,87.6863334 C51.7537351,89.7732751 51.3772562,91.8671838 51.5363407,94.0358298 C51.8069745,97.7270881 55.2764111,101.040227 59.0259886,101.105464 C59.2414816,100.558868 59.5146506,99.990739 59.6940168,99.3947414 C61.9205661,91.9849899 64.9070449,84.8792543 68.5317633,78.0598001 C71.2171858,73.006171 74.1535942,68.0849155 77.0316928,63.1351584 C77.4005661,62.4998921 78.0495802,61.650548 78.641552,61.5891115 C80.5429604,61.3908678 82.4785942,61.5150076 84.4966224,61.5150076 C82.421552,65.5172488 80.6063407,69.5695259 79.5979604,73.9340525 C78.7543689,77.5835087 78.1135942,81.2424654 78.7309182,85.0192282 C79.1061294,87.3177142 80.258383,88.9974014 82.3271154,90.029155 C84.5986647,91.1647807 86.9469041,91.094477 89.2805661,90.2717343 C91.8829604,89.3539866 94.0277492,87.7097679 96.0026787,85.8280369 C99.5424675,82.4534616 102.480144,78.576627 104.974791,74.405277 C109.137608,67.4439488 113.084298,60.3540473 117.205284,53.3673845 C118.736552,50.770583 120.459862,48.2814537 122.188242,45.8075252 C122.733946,45.0272181 123.424791,44.2253764 124.931975,43.9606293 C124.413524,45.3572019 124.09789,46.4820603 123.594651,47.515714 C122.169228,50.4469328 120.663313,53.338883 119.195425,56.2504676 C116.761622,61.0760848 114.12627,65.8212646 112.550636,71.0193012 C112.0512,72.6622532 111.752679,74.4496126 111.804017,76.157168 C111.930777,80.3456188 114.559791,83.1723323 118.391763,83.5979544 C118.506482,83.4928156 118.667467,83.4098446 118.727679,83.2787378 C118.996411,82.7042746 119.265777,82.1279114 119.48127,81.5319138 C123.19789,71.2498465 127.983735,61.4865061 133.802045,52.2298588 C136.304298,48.2497854 138.9612,44.3818179 142.271552,41.0110428 C143.19627,40.0698606 144.155214,39.152113 145.955848,38.8157955 C145.602186,39.8412154 145.421552,40.5873208 145.098313,41.2662894 C144.280073,42.9896789 143.381341,44.6750664 142.544087,46.3902222 C139.685003,52.2482264 136.736552,58.0663285 134.036552,63.9971698 C132.962256,66.3570924 132.206763,68.9266592 131.735848,71.4797584 C130.972749,75.6150065 134.053665,79.4981748 138.083383,79.8940287 C138.202538,79.7901566 138.371129,79.7097191 138.428806,79.5786123 C138.651904,79.0700192 138.854721,78.5544591 139.038524,78.0312986 C142.549158,68.0095449 147.082115,58.4786499 152.828806,49.5405858 C156.410425,43.9694965 160.373594,38.6967226 165.310284,34.2213569 C166.523383,33.1224665 167.78782,32.1135141 169.54282,31.508016 C169.771622,33.6747619 169.188524,35.4538876 168.443172,37.0708716 C166.382679,41.540537 164.298101,46.0171695 161.901059,50.3120258 C157.446059,58.2975072 152.697608,66.1202134 148.200144,74.0847937 C145.934298,78.1003356 144.101341,82.3369222 143.062538,87.0479002 C142.307679,87.2721118 141.708101,87.4982236 141.088242,87.6242635 C136.808172,88.4938753 132.502749,89.2545481 128.241693,90.2134646 C104.813806,95.4843383 81.6394393,101.691961 58.8662703,109.328457 C50.423383,112.159604 42.0559182,115.207996 34.0446506,119.156401 C32.2890168,120.022846 30.9694393,121.155938 30.3844393,122.993967 C29.2569041,126.542718 28.1876787,130.111737 27.1558478,133.689622 C26.8877492,134.618137 26.8452844,135.614422 26.6405661,136.971093 C27.7598618,136.349127 28.4431013,135.967841 29.1276083,135.589721 C32.886059,133.50848 36.5995097,131.341734 40.4111999,129.363098 C57.8692985,120.304694 75.8971858,112.518723 94.2926787,105.578929 C109.473524,99.8513984 124.850214,94.7261989 140.677538,91.0507747 C141.344298,90.8949666 142.030073,90.8221295 142.723453,90.7055901 C143.06127,91.4814638 143.293876,92.0666942 143.565777,92.6329236 C144.283242,94.117534 145.474791,94.9117752 147.116975,95.0846842 C152.062538,95.6046779 157.985425,92.166766 159.965425,87.6084293 C160.559298,86.2390915 160.140355,85.3694797 158.649017,85.323244 C156.98782,85.2751081 155.31458,85.4283828 153.655918,85.5968582 C151.632186,85.8020688 149.619228,86.113685 147.248806,86.4253012 C147.9612,85.162369 148.382679,84.2091528 148.983524,83.3838766 C151.978242,79.2707963 154.941904,75.1279479 158.064651,71.1111393 C162.948735,64.8294131 168.015355,58.6895609 172.879791,52.3951673 C175.410566,49.1212973 177.586411,45.6061148 179.035918,41.6735439 C180.298453,38.2432324 179.619017,35.1967409 177.250496,32.6107066 L177.250496,32.6107066 Z M104.515284,48.0477416 C105.389298,54.5232779 98.1721858,66.5002332 91.7111999,69.0761336 C95.2034534,61.3186641 98.3198618,53.8601434 104.515284,48.0477416 L104.515284,48.0477416 Z M152.045425,88.7820569 C151.379298,90.6403534 150.328453,91.6569062 148.971482,92.3624762 C148.214721,92.7545299 147.383172,93.2244876 146.549721,92.5081504 C145.772679,91.8399491 145.820214,91.0089726 146.24296,89.9164158 C148.140566,89.5452632 149.95451,89.1905781 152.045425,88.7820569 L152.045425,88.7820569 Z M1.37338297,52.401501 C0.00436888423,46.5675647 1.30746748,41.1383494 4.41563649,36.2018931 C10.6300731,26.3308805 19.7264111,21.0384723 31.2907773,19.8021414 C37.826552,19.1035385 44.3116224,19.702703 50.8119041,20.2448644 C63.4226787,21.2968857 75.8198618,23.7169781 88.2512703,25.9432604 C95.9893689,27.3290657 103.745848,28.6357002 111.523876,29.7694257 C117.122256,30.5858348 122.797327,30.8277807 128.435003,30.3172875 C133.469932,29.8612638 138.315355,28.5546293 142.331763,25.2243897 C144.761129,23.2102851 146.220144,20.7072218 146.226482,17.4042169 C146.234087,14.0144409 143.004862,10.5822293 139.179862,11.7203884 C137.646059,12.1770455 137.175144,11.6963205 137.100989,10.1021377 C137.010355,8.12920194 138.261482,6.34690938 140.304862,5.53746735 C143.783172,4.15926244 148.081622,5.50579904 150.505284,8.72709965 C152.840848,11.8324942 153.087397,15.3407098 152.290073,18.9515306 C151.3362,23.2736217 148.464439,26.1807727 144.799791,28.3994546 C140.454439,31.0310912 135.674298,32.4916338 130.7262,33.413815 C120.983383,35.2303093 111.156904,35.610329 101.276552,34.9915302 C97.1485942,34.7331168 93.0098618,34.6381119 88.8863407,34.3271291 C84.449721,33.9927117 80.0270449,33.477785 75.5954956,33.067997 C71.6373971,32.7019113 67.6786647,32.3434261 63.7167633,32.0305431 C55.0571154,31.3452409 46.3759182,31.2065337 37.7067633,31.5732527 C31.205214,31.8475003 24.680214,32.246521 18.3364816,33.9230414 C13.970214,35.0770347 9.90119987,36.8219586 6.78225621,40.2491033 C4.02838297,43.2740604 2.99591818,46.7936765 3.9231717,50.8250525 C4.58296043,53.6872344 6.31450973,55.6063341 9.06584776,56.6190867 C12.3977492,57.8446503 15.8000027,57.8047483 19.1597914,56.9104352 C26.6316928,54.9216652 32.5419041,50.784517 36.4138055,43.9682297 C36.569721,43.6933488 36.7307069,43.4210013 36.8999323,43.1530874 C36.9398618,43.0903841 37.0222562,43.0536489 37.286552,42.8509717 C38.9230309,43.7180501 39.1689463,45.2292619 39.2456365,46.7259063 C39.4129604,49.9921759 38.1022562,52.8138224 36.1438055,55.2877509 C32.2154956,60.2501753 27.0176787,63.0787888 20.768383,64.0345384 C18.3966928,64.3980907 16.0655661,64.5063963 13.6558478,64.1485444 C7.07887593,63.172527 2.80894635,58.5223522 1.37338297,52.401501 L1.37338297,52.401501 Z"></path>
                </g>
            </g>
        </g>
    </g>
</svg>
